<svg width="14" height="14" viewBox="0 0 14 14" fill="none" xmlns="http://www.w3.org/2000/svg">
<path d="M13.9846 3.74216C13.9871 3.72432 13.9871 3.70621 13.9846 3.68837H13.9385L7.14592 0.076945C7.11475 0.0619591 7.08062 0.0541992 7.04603 0.0541992C7.01145 0.0541992 6.97731 0.0619591 6.94614 0.076945L0.161287 3.68837H0.107506L0.0690845 3.74216C0.0661645 3.76769 0.0661645 3.79345 0.0690845 3.81898V13.808C0.0690654 13.8359 0.0746779 13.8636 0.0855811 13.8892C0.0964844 13.9149 0.112452 13.9382 0.132538 13.9575C0.152624 13.9769 0.176411 13.992 0.202476 14.002C0.22854 14.0119 0.256348 14.0165 0.284232 14.0155H2.40497C2.46 14.0155 2.51277 13.9936 2.55167 13.9547C2.59058 13.9158 2.61244 13.863 2.61244 13.808V13.3777H11.5257V13.8311C11.5257 13.859 11.5313 13.8866 11.5422 13.9123C11.5531 13.938 11.5691 13.9612 11.5892 13.9805C11.6093 13.9999 11.6331 14.015 11.6591 14.025C11.6852 14.035 11.713 14.0396 11.7409 14.0386H13.8616C13.8889 14.0386 13.9158 14.0332 13.941 14.0228C13.9662 14.0123 13.9891 13.997 14.0083 13.9778C14.0276 13.9585 14.0429 13.9357 14.0533 13.9105C14.0637 13.8853 14.0691 13.8583 14.0691 13.8311V3.84206C14.0477 3.80357 14.019 3.76964 13.9846 3.74216ZM6.99992 0.453494L12.9396 3.60386H1.0603L6.99992 0.453494ZM7.28423 10.7575H4.59488V9.00559H7.28423V10.7575ZM8.55976 10.7575H7.70685V9.00559H10.3962V10.7575H8.55976ZM10.6037 8.58299H4.36436C4.3073 8.58299 4.25258 8.60567 4.21223 8.64602C4.17189 8.68637 4.14921 8.7411 4.14921 8.79816V10.7575H2.52024V7.20759H11.4335V10.7575H10.7958V8.79816C10.7942 8.74621 10.7739 8.69658 10.7386 8.65845C10.7033 8.62031 10.6553 8.59622 10.6037 8.59068V8.58299ZM2.54329 6.14722H11.4566V6.7773H2.54329V6.14722ZM11.4566 5.71692H2.54329V5.08684H11.4566V5.71692ZM11.4566 4.65655H2.54329V4.02646H11.4566V4.65655ZM0.422536 4.02646H2.12067V13.5698H0.422536V4.02646ZM2.54329 11.1801H5.23264V12.9321H2.54329V11.1801ZM5.65524 11.1801H8.3446V12.9321H5.65524V11.1801ZM8.72879 12.9321V11.1801H11.4181V12.9321H8.72879ZM11.8408 13.5698V4.03415H13.585V13.5775L11.8408 13.5698Z" fill="#9A9A9A"/>
</svg>
